<svg width="164" height="52" viewBox="0 0 164 52" fill="none" xmlns="http://www.w3.org/2000/svg">
<path d="M44.5625 9.42776C44.5425 8.95059 44.3379 8.49957 43.9914 8.16896C43.6449 7.83836 43.1833 7.65376 42.7032 7.65376C42.223 7.65376 41.7615 7.83836 41.415 8.16896C41.0685 8.49957 40.8638 8.95059 40.8439 9.42776C40.8443 9.70592 40.907 9.98049 41.0274 10.2316L38.0364 13.5972V39.1905L30.744 46.8442L29.5431 48.0899H26.5714V36.1291C27.7782 35.912 28.8699 35.2799 29.6556 34.3433C30.4413 33.4066 30.871 32.2251 30.8695 31.0053V28.3569C30.8869 27.6633 30.7645 26.9733 30.5095 26.3275C30.2546 25.6816 29.8724 25.0931 29.3853 24.5964C28.8982 24.0997 28.3161 23.7051 27.6734 23.4356C27.0306 23.1661 26.3401 23.0273 25.6425 23.0273C24.945 23.0273 24.2545 23.1661 23.6117 23.4356C22.9689 23.7051 22.3868 24.0997 21.8997 24.5964C21.4126 25.0931 21.0304 25.6816 20.7755 26.3275C20.5206 26.9733 20.3982 27.6633 20.4155 28.3569V31.0181C20.4141 32.2379 20.8437 33.4195 21.6294 34.3561C22.4151 35.2927 23.5068 35.9248 24.7137 36.1419V49.9505H30.3383L39.8973 39.9399V14.321L42.5824 11.2947H42.7016C42.9473 11.2947 43.1906 11.2463 43.4175 11.1523C43.6443 11.0583 43.8502 10.9205 44.0232 10.747C44.1962 10.5734 44.3329 10.3674 44.4255 10.141C44.5181 9.91459 44.5646 9.67217 44.5625 9.42776ZM22.2732 31.0181V28.3569C22.3003 27.4861 22.6671 26.6599 23.296 26.0534C23.925 25.4468 24.7665 25.1077 25.6425 25.1077C26.5185 25.1077 27.3601 25.4468 27.989 26.0534C28.6179 26.6599 28.9848 27.4861 29.0118 28.3569V31.0181C28.9848 31.889 28.6179 32.7152 27.989 33.3217C27.3601 33.9282 26.5185 34.2674 25.6425 34.2674C24.7665 34.2674 23.925 33.9282 23.296 33.3217C22.6671 32.7152 22.3003 31.889 22.2732 31.0181ZM18.0877 34.5407L20.9564 37.3972V49.6367L7.33427 35.2516V24.0818C7.32681 23.9559 7.3453 23.8298 7.38861 23.7113C7.43192 23.5927 7.49913 23.4842 7.58612 23.3925C7.6731 23.3007 7.77802 23.2276 7.89444 23.1776C8.01086 23.1277 8.13632 23.1019 8.26312 23.1019C8.38992 23.1019 8.51538 23.1277 8.6318 23.1776C8.74822 23.2276 8.85314 23.3007 8.94013 23.3925C9.02711 23.4842 9.09432 23.5927 9.13763 23.7113C9.18094 23.8298 9.19943 23.9559 9.19198 24.0818V34.5183L19.0922 44.9836V38.1722L16.2204 35.3189V20.3927C15.8656 20.1889 15.5883 19.8744 15.4316 19.498C15.2748 19.1216 15.2473 18.7042 15.3533 18.3106C15.4593 17.917 15.693 17.5692 16.018 17.3212C16.343 17.0732 16.7412 16.9387 17.1508 16.9387C17.5605 16.9387 17.9587 17.0732 18.2837 17.3212C18.6087 17.5692 18.8423 17.917 18.9483 18.3106C19.0544 18.7042 19.0269 19.1216 18.8701 19.498C18.7133 19.8744 18.4361 20.1889 18.0813 20.3927L18.0877 34.5407ZM33.2199 34.5407V20.3927C32.8651 20.1889 32.5878 19.8744 32.431 19.498C32.2743 19.1216 32.2468 18.7042 32.3528 18.3106C32.4588 17.917 32.6925 17.5692 33.0175 17.3212C33.3425 17.0732 33.7407 16.9387 34.1503 16.9387C34.56 16.9387 34.9582 17.0732 35.2832 17.3212C35.6082 17.5692 35.8418 17.917 35.9478 18.3106C36.0539 18.7042 36.0264 19.1216 35.8696 19.498C35.7128 19.8744 35.4356 20.1889 35.0808 20.3927V35.3189L32.196 38.1722V42.1303C32.2035 42.2562 32.185 42.3823 32.1417 42.5008C32.0984 42.6194 32.0312 42.7278 31.9442 42.8196C31.8572 42.9114 31.7523 42.9845 31.6358 43.0345C31.5194 43.0844 31.394 43.1102 31.2672 43.1102C31.1404 43.1102 31.0149 43.0844 30.8985 43.0345C30.7821 42.9845 30.6771 42.9114 30.5902 42.8196C30.5032 42.7278 30.436 42.6194 30.3927 42.5008C30.3493 42.3823 30.3309 42.2562 30.3383 42.1303V37.4068L33.2199 34.5407ZM11.7677 22.7368L1.18805 11.4709L5.22865 2.06552H15.1321L17.3537 4.99569H31.2656C31.5024 5.00956 31.7251 5.11294 31.8878 5.28468C32.0506 5.45642 32.1413 5.68353 32.1413 5.91957C32.1413 6.1556 32.0506 6.38271 31.8878 6.55445C31.7251 6.72619 31.5024 6.82957 31.2656 6.84345H16.42L14.1824 3.91329H6.45532L3.37416 11.0866L13.6254 22.0034V33.1829C13.6328 33.3088 13.6143 33.4349 13.571 33.5534C13.5277 33.672 13.4605 33.7804 13.3735 33.8722C13.2865 33.964 13.1816 34.0371 13.0652 34.0871C12.9488 34.137 12.8233 34.1628 12.6965 34.1628C12.5697 34.1628 12.4443 34.137 12.3278 34.0871C12.2114 34.0371 12.1065 33.964 12.0195 33.8722C11.9325 33.7804 11.8653 33.672 11.822 33.5534C11.7787 33.4349 11.7602 33.3088 11.7677 33.1829V22.7368ZM52.2026 11.4709L44.4756 19.7009V34.4767C44.483 34.6026 44.4645 34.7286 44.4212 34.8472C44.3779 34.9657 44.3107 35.0742 44.2237 35.166C44.1367 35.2577 44.0318 35.3308 43.9154 35.3808C43.799 35.4308 43.6735 35.4566 43.5467 35.4566C43.4199 35.4566 43.2945 35.4308 43.178 35.3808C43.0616 35.3308 42.9567 35.2577 42.8697 35.166C42.7827 35.0742 42.7155 34.9657 42.6722 34.8472C42.6289 34.7286 42.6104 34.6026 42.6179 34.4767V18.974L50.0229 11.0866L46.9418 3.91329H39.2147L34.0634 10.6639L12.6369 10.7279C12.4183 11.0726 12.0914 11.3358 11.7069 11.4768C11.3225 11.6178 10.902 11.6287 10.5108 11.5077C10.1195 11.3867 9.77929 11.1407 9.54296 10.8078C9.30662 10.4749 9.18737 10.0737 9.20369 9.66645C9.22001 9.25922 9.37099 8.86874 9.63322 8.55558C9.89544 8.24243 10.2542 8.02411 10.654 7.9345C11.0537 7.84489 11.4719 7.889 11.8439 8.05998C12.2158 8.23097 12.5206 8.51927 12.711 8.88015L33.1361 8.81931L38.2875 2.06552H48.1652L52.2026 11.4709Z" fill="#1B1464"/>
<path d="M83.4392 32.1998H81.7328V37.9993H80.3645V32.1998H78.6581V30.9476H83.4392V32.1998Z" fill="#231F20"/>
<path d="M88.3008 36.7471V37.9993H84.1958V30.9541H88.2171V32.2062H85.5706V33.8426H87.7985V35.0755H85.5706V36.7535L88.3008 36.7471Z" fill="#231F20"/>
<path d="M88.6581 34.4735C88.6438 33.9927 88.7286 33.5142 88.9073 33.0673C89.086 32.6204 89.3548 32.2146 89.6972 31.875C90.0395 31.5354 90.4482 31.2691 90.898 31.0925C91.3477 30.9159 91.8291 30.8329 92.3124 30.8484C92.8846 30.8295 93.4517 30.961 93.9565 31.2298C94.4613 31.4985 94.8859 31.895 95.1875 32.3791L94.1894 33.0644C93.9839 32.7709 93.7083 32.5327 93.3875 32.3712C93.0666 32.2097 92.7105 32.1299 92.351 32.1389C91.7285 32.1389 91.1315 32.3849 90.6913 32.8227C90.2512 33.2605 90.0039 33.8543 90.0039 34.4735C90.0039 35.0926 90.2512 35.6864 90.6913 36.1242C91.1315 36.562 91.7285 36.808 92.351 36.808C92.7095 36.8192 93.065 36.7403 93.3847 36.5785C93.7044 36.4167 93.9778 36.1773 94.1797 35.8825L95.1778 36.5678C94.8763 37.0519 94.4517 37.4484 93.9469 37.7171C93.4421 37.9859 92.8749 38.1174 92.3027 38.0985C91.8202 38.1127 91.3399 38.0286 90.8913 37.8515C90.4427 37.6743 90.0352 37.4078 89.6939 37.0683C89.3526 36.7288 89.0846 36.3235 88.9065 35.8773C88.7284 35.4311 88.6439 34.9534 88.6581 34.4735Z" fill="#231F20"/>
<path d="M101.643 30.9476V37.9928H100.274V35.1107H97.3607V37.9928H95.9924V30.9476H97.3607V33.8586H100.274V30.9476H101.643Z" fill="#231F20"/>
<path d="M102.66 30.9476H104.028L107.284 35.7512H107.332V30.9476H108.7V37.9928H107.332L104.077 33.1893H104.028V37.9928H102.66V30.9476Z" fill="#231F20"/>
<path d="M109.615 34.4735C109.615 33.7551 109.83 33.053 110.232 32.4561C110.634 31.8592 111.204 31.3943 111.872 31.1201C112.54 30.8459 113.274 30.7748 113.982 30.9158C114.69 31.0568 115.341 31.4036 115.851 31.9122C116.361 32.4209 116.708 33.0685 116.847 33.7733C116.987 34.4781 116.914 35.2083 116.636 35.8716C116.359 36.5348 115.89 37.1013 115.289 37.4995C114.688 37.8976 113.981 38.1094 113.259 38.1081C112.777 38.1191 112.297 38.0326 111.849 37.8537C111.401 37.6748 110.995 37.4073 110.654 37.0674C110.313 36.7276 110.045 36.3224 109.867 35.8765C109.688 35.4306 109.602 34.9533 109.615 34.4735ZM115.506 34.4735C115.488 34.0345 115.341 33.6106 115.082 33.2544C114.824 32.8982 114.465 32.6253 114.052 32.4698C113.639 32.3143 113.189 32.283 112.759 32.3797C112.328 32.4764 111.935 32.6968 111.629 33.0137C111.323 33.3306 111.117 33.7299 111.038 34.162C110.958 34.5942 111.008 35.04 111.181 35.4443C111.354 35.8485 111.642 36.1932 112.011 36.4357C112.379 36.6781 112.811 36.8076 113.253 36.808C113.558 36.8115 113.86 36.7527 114.141 36.6354C114.422 36.5181 114.676 36.3447 114.888 36.126C115.099 35.9072 115.263 35.6477 115.369 35.3635C115.476 35.0792 115.522 34.7763 115.506 34.4735Z" fill="#231F20"/>
<path d="M121.952 36.7471V37.9993H117.837V30.9541H119.202V36.7535L121.952 36.7471Z" fill="#231F20"/>
<path d="M122.132 34.4735C122.134 33.7559 122.349 33.0547 122.751 32.4588C123.153 31.8628 123.723 31.3988 124.39 31.1253C125.057 30.8519 125.791 30.7813 126.498 30.9226C127.205 31.0638 127.855 31.4105 128.364 31.9188C128.873 32.4271 129.22 33.0742 129.359 33.7783C129.499 34.4824 129.425 35.2118 129.148 35.8743C128.871 36.5368 128.402 37.1026 127.801 37.5002C127.201 37.8979 126.495 38.1094 125.774 38.1081C125.292 38.1187 124.812 38.0318 124.365 37.8527C123.917 37.6736 123.511 37.4061 123.171 37.0663C122.83 36.7264 122.563 36.3214 122.384 35.8758C122.206 35.4301 122.12 34.953 122.132 34.4735ZM128.021 34.4735C128.003 34.0345 127.855 33.6106 127.597 33.2544C127.338 32.8982 126.98 32.6253 126.567 32.4698C126.154 32.3143 125.704 32.283 125.273 32.3797C124.842 32.4764 124.449 32.6968 124.144 33.0137C123.838 33.3306 123.632 33.7299 123.552 34.162C123.473 34.5942 123.523 35.04 123.696 35.4443C123.868 35.8485 124.157 36.1932 124.525 36.4357C124.894 36.6782 125.326 36.8076 125.767 36.808C126.072 36.8115 126.375 36.7527 126.656 36.6354C126.937 36.5181 127.191 36.3447 127.402 36.126C127.613 35.9072 127.777 35.6477 127.884 35.3635C127.99 35.0793 128.037 34.7763 128.021 34.4735Z" fill="#231F20"/>
<path d="M133.768 38.1081C132.801 38.1026 131.877 37.7154 131.197 37.0317C130.517 36.3479 130.139 35.4237 130.144 34.4622C130.15 33.5008 130.539 32.581 131.227 31.905C131.914 31.2291 132.843 30.8525 133.81 30.858C134.38 30.8418 134.945 30.9746 135.448 31.2431C135.951 31.5117 136.374 31.9067 136.675 32.3887L135.687 33.074C135.479 32.7784 135.2 32.5389 134.876 32.3773C134.551 32.2158 134.192 32.1371 133.829 32.1485C133.52 32.1383 133.213 32.1921 132.926 32.3064C132.64 32.4208 132.38 32.5933 132.164 32.8129C131.948 33.0325 131.781 33.2944 131.672 33.5819C131.564 33.8695 131.516 34.1764 131.534 34.4831C131.534 35.9209 132.541 36.856 133.829 36.856C134.698 36.856 135.487 36.4493 135.696 35.3573H134V34.2141H137.023C137.342 36.6479 135.725 38.1081 133.768 38.1081Z" fill="#231F20"/>
<path d="M139.087 35.178L136.511 30.9476H138.056L139.753 33.897L141.46 30.9476H143.008L140.433 35.178V37.9993H139.087V35.178Z" fill="#231F20"/>
<path d="M61.6586 21.4751V26.7718H58.806V13.5716H61.6586V18.6378H69.8267L72.9336 13.5716H76.2756L72.3026 20.0532L76.2756 26.538H72.9336L69.8267 21.4751H61.6586Z" fill="#1B1464"/>
<path d="M82.206 26.6693C78.4713 25.763 76.9935 19.7234 79.347 15.9254C80.168 14.6156 81.4559 13.5716 83.0657 13.5716L93.6517 13.6805C97.3865 14.5868 98.8643 20.6264 96.5107 24.4244C95.6994 25.731 94.3987 26.7782 92.7985 26.7782L82.206 26.6693ZM92.9692 23.9185C94.257 23.5982 94.7915 21.2957 94.7915 20.1781C94.7915 18.9996 94.1218 16.4185 92.7921 16.4185H82.8822C81.5943 16.7388 81.0599 19.0413 81.0599 20.1589C81.0599 21.3374 81.7295 23.9185 83.0592 23.9185H92.9692Z" fill="#1B1464"/>
<path d="M119.273 26.7718H115.928L114.408 24.2867H104.106L102.583 26.7718H99.2506L106.153 15.5123C107.387 13.4339 107.531 13.5716 110.036 13.5716C111.356 13.5716 111.846 14.6572 112.364 15.493L119.273 26.7718ZM108.822 16.6267L105.854 21.4558H112.686L109.727 16.6299L108.822 16.6267Z" fill="#1B1464"/>
<path d="M124.077 13.5716V23.9345H136.695V26.7718H121.224V13.5716H124.077Z" fill="#1B1464"/>
<path d="M158.675 26.7718H155.333L153.81 24.2867H143.507L141.984 26.7718H138.655L145.555 15.5123C146.788 13.4339 146.933 13.5716 149.438 13.5716C150.761 13.5716 151.25 14.6572 151.765 15.493L158.675 26.7718ZM148.214 16.6267L145.255 21.4558H152.071L149.113 16.6299L148.214 16.6267Z" fill="#1B1464"/>
<path d="M158.147 13.325H157.21V16.4666H156.621V13.325H155.687V12.7774H158.147V13.325Z" fill="#1B1464"/>
<path d="M158.585 12.7774H159.229L160.545 15.714L161.865 12.7774H162.509V16.4666H161.946V13.9047H161.92L160.78 16.4666H160.336L159.203 13.9047H159.177V16.4666H158.585V12.7774Z" fill="#1B1464"/>
</svg>
