<svg width="155" height="48" viewBox="0 0 155 48" fill="none" xmlns="http://www.w3.org/2000/svg">
<g clip-path="url(#clip0_2_58)">
<path d="M57.9582 12.9896C57.966 13.9268 57.646 14.8373 57.0535 15.5635C56.7199 15.972 56.2951 16.2965 55.8133 16.5109C55.6629 16.5763 55.5062 16.626 55.3457 16.6594C55.1769 16.7136 55.0043 16.7551 54.8293 16.7834H50.763V22.4761H48.248V13.9492H50.763H54.5731C54.81 13.9225 55.0288 13.8095 55.1876 13.6317C55.3465 13.454 55.4343 13.2239 55.4343 12.9855C55.4343 12.7471 55.3465 12.5171 55.1876 12.3393C55.0288 12.1615 54.81 12.0485 54.5731 12.0218H54.5121H54.4938H54.0872H48.248V9.20593H54.7357C54.7357 9.20593 55.0061 9.24253 55.2522 9.29743C55.4982 9.35232 55.675 9.40924 55.675 9.40924C57.0088 9.92159 57.9582 11.3366 57.9582 12.9896Z" fill="#00AEEF"/>
<path d="M62.2705 9.17957V22.4762H59.7515V9.17957H62.2705Z" fill="#00AEEF"/>
<path d="M75.866 17.184L75.6627 17.8753C75.3022 19.1653 74.5602 20.3163 73.534 21.1771C72.5466 22.0127 71.2959 22.4728 70.0025 22.4762C68.5384 22.4667 67.1366 21.8826 66.0989 20.8497C65.0051 19.7595 64.308 18.3344 64.1186 16.8018C64.0753 16.4783 64.0536 16.1523 64.0535 15.8259C64.0532 15.5131 64.0736 15.2007 64.1145 14.8906C64.2972 13.3528 64.991 11.9209 66.0846 10.8244C67.1226 9.78042 68.5304 9.18794 70.0025 9.17554C71.329 9.18 72.6092 9.66377 73.6072 10.5377C74.6425 11.4382 75.3792 12.6323 75.7196 13.9615L75.8944 14.6365H73.2859L73.164 14.3153C72.6231 12.8921 71.3829 11.9751 70.0065 11.9751C68.38 11.9751 66.9568 13.2702 66.6437 15.0553C66.5502 15.5675 66.5502 16.0924 66.6437 16.6046C66.9751 18.3713 68.3861 19.6542 70.0004 19.6542C71.3077 19.6542 72.5195 18.8003 73.0908 17.4788L73.2189 17.1799L75.866 17.184Z" fill="#00AEEF"/>
<path d="M89.5123 15.8624C89.5123 19.5099 86.8692 22.4762 83.604 22.4762C80.3389 22.4762 77.708 19.5099 77.708 15.8624C77.708 12.215 80.3511 9.25073 83.604 9.25073C86.857 9.25073 89.5123 12.2171 89.5123 15.8624ZM83.604 11.9995C81.7071 11.9995 80.162 13.7277 80.162 15.8624C80.162 17.9972 81.7071 19.7254 83.604 19.7254C85.501 19.7254 87.0461 17.9952 87.0461 15.8624C87.0461 13.7297 85.503 12.0097 83.604 12.0097V11.9995Z" fill="#00AEEF"/>
<path d="M91.275 16.45V14.5247H95.2884V16.45H91.275ZM91.275 14.5247V16.45H95.2884V14.5247H91.275ZM95.2233 14.5897H91.3319V16.385H95.2233V14.5897Z" fill="#00AEEF"/>
<path d="M107.705 18.4343C107.706 19.1131 107.55 19.783 107.251 20.3922C106.615 21.6731 105.407 22.4681 104.1 22.4681C103.83 22.4359 103.557 22.4359 103.287 22.4681H97.0247V14.3803H103.498C103.756 14.3097 103.981 14.1537 104.139 13.9381C104.296 13.7224 104.376 13.4597 104.364 13.1929C104.372 12.9387 104.298 12.6885 104.155 12.4785C104.011 12.2685 103.805 12.1093 103.565 12.0239H99.5417H97.0247V9.15924H103.283C104.57 9.15924 105.765 9.93589 106.41 11.1924C106.418 11.2126 106.427 11.2323 106.438 11.2513C106.736 11.8618 106.89 12.5321 106.89 13.2113C106.89 13.8904 106.736 14.5607 106.438 15.1712C106.433 15.1818 106.428 15.1919 106.422 15.2017L106.369 15.3013L106.501 15.4253C106.809 15.7329 107.064 16.0886 107.257 16.4785C107.555 17.0875 107.708 17.7567 107.705 18.4343ZM99.5417 19.6075H104.37C104.611 19.5175 104.819 19.3554 104.964 19.1432C105.11 18.9311 105.186 18.6792 105.183 18.422C105.18 18.1648 105.098 17.9147 104.948 17.7059C104.798 17.4971 104.587 17.3397 104.344 17.2551H99.5417V19.6075Z" fill="#00AEEF"/>
<path d="M120.109 9.20398V12.0239H109.52V9.20398H120.109ZM112.033 19.6542H120.109V22.4721H109.52V13.9615L112.039 13.9798H119.058V16.8079H112.033V19.6542Z" fill="#00AEEF"/>
<path d="M131.332 19.6543V22.4722H121.896V9.10846H124.415V19.6543H131.332Z" fill="#00AEEF"/>
<path d="M142.567 19.6543V22.4722H133.131V9.10846H135.648V19.6543H142.567Z" fill="#00AEEF"/>
<path d="M154.601 15.8624C154.601 19.5099 151.958 22.4762 148.692 22.4762C145.427 22.4762 142.784 19.5099 142.784 15.8624C142.784 12.215 145.427 9.25073 148.692 9.25073C151.958 9.25073 154.601 12.2171 154.601 15.8624ZM148.692 11.9995C146.796 11.9995 145.25 13.7277 145.25 15.8624C145.25 17.9972 146.796 19.7254 148.692 19.7254C150.589 19.7254 152.135 17.9952 152.135 15.8624C152.135 13.7297 150.589 12.0097 148.692 12.0097V11.9995Z" fill="#00AEEF"/>
<path d="M64.7285 32.1335L64.7428 32.1477H61.8354V35.8073H60.8188V27.9656H64.6818C65.6658 28.0245 66.4465 28.9354 66.4465 30.0516C66.4465 31.1677 65.6902 32.0562 64.7285 32.1335ZM65.4381 30.0536C65.4503 29.8134 65.3673 29.5781 65.207 29.3988C65.0468 29.2195 64.8222 29.1107 64.5822 29.096H61.8354V31.0071H64.5883C64.8265 30.9909 65.0489 30.882 65.2077 30.7037C65.3666 30.5255 65.4493 30.2921 65.4381 30.0536Z" fill="#58585A"/>
<path d="M73.965 35.7992H72.7817L70.7649 32.0969L70.71 31.9953H70.6978L70.6449 32.0115H70.6266L70.5473 32.0319C70.4878 32.0485 70.4274 32.0621 70.3664 32.0725H70.3156H70.2871H70.22H70.1895H70.1184H70.0309H69.9496H68.4675V35.7322H67.4509V27.9412H73.2555C73.2555 28.0327 73.2555 28.1242 73.2555 28.2177C73.2558 28.5044 73.2279 28.7904 73.1721 29.0716C73.0329 29.7923 72.7014 30.4618 72.2125 31.0092C72.1705 31.058 72.1257 31.1048 72.0783 31.1495C72.0637 31.1661 72.0481 31.1817 72.0315 31.1963L71.9685 31.2532L71.9258 31.2918L71.8933 31.3203L71.7753 31.4179L71.7184 31.4606L71.6635 31.4992L71.6432 31.5134L71.7652 31.7371L73.965 35.7992ZM71.5253 30.2061C71.817 29.8807 72.0299 29.4925 72.1474 29.0716H68.4634V31.0092H69.7626C70.1057 31.0103 70.4445 30.9323 70.7527 30.7815C71.0412 30.6401 71.3 30.4448 71.5151 30.2061H71.5253Z" fill="#58585A"/>
<path d="M77.2038 27.9554C79.1373 27.9554 80.7068 29.7121 80.7068 31.8773C80.7068 34.0426 79.1373 35.7992 77.2038 35.7992C75.2703 35.7992 73.7007 34.0426 73.7007 31.8773C73.7007 29.7121 75.2682 27.9554 77.2038 27.9554ZM74.7112 31.8773C74.7112 33.4164 75.8294 34.6688 77.2038 34.6688C78.5782 34.6688 79.6964 33.4164 79.6964 31.8773C79.6964 30.3383 78.5782 29.0859 77.2038 29.0859C75.8294 29.0859 74.7112 30.3383 74.7112 31.8773Z" fill="#58585A"/>
<path d="M87.0238 27.9331V33.8963C86.7732 34.3644 86.4269 34.7745 86.0072 35.0999C85.4381 35.5502 84.7344 35.7965 84.0087 35.7993C83.5608 35.7991 83.1181 35.7041 82.7095 35.5207C82.3319 35.3532 81.9875 35.1191 81.6929 34.8295V32.5076H82.7095V34.2622C83.0914 34.5261 83.5444 34.6679 84.0087 34.6688C84.4082 34.6618 84.7998 34.5561 85.1485 34.3609C85.4972 34.1658 85.7922 33.8874 86.0072 33.5506V27.9331H87.0238Z" fill="#58585A"/>
<path d="M94.3349 27.9636V29.094H88.1461V27.9636H94.3349ZM89.1565 34.6729H94.3349V35.8033H88.1461V29.6632H89.1626V31.0397H93.6619V32.1701H89.1565V34.6729Z" fill="#58585A"/>
<path d="M101.601 35.7992H100.178L97.3927 32.6804L96.3761 33.8311V35.7992H95.3596V33.3594L96.3761 32.229L97.2056 31.2999L100.168 27.9656H101.591L98.0941 31.8814L101.601 35.7992ZM96.3151 31.4788L95.3514 32.5564V27.9656H96.368V31.4219L96.3151 31.4788Z" fill="#58585A"/>
<path d="M102.608 29.096V27.9656H108.851V29.096H102.608ZM105.171 35.8053V29.6653H106.188V35.8053H105.171Z" fill="#58585A"/>
<path d="M116.154 27.9636V29.094H109.966V27.9636H116.154ZM110.974 34.6729H116.154V35.8033H109.966V29.6632H110.982V31.0397H115.483V32.1701H110.974V34.6729Z" fill="#58585A"/>
<path d="M127.221 34.6688V35.7992H121.774V27.9026H122.79V34.6688H127.221Z" fill="#58585A"/>
<path d="M126.021 29.096V27.9656H132.265V29.096H126.021ZM128.583 35.8053V29.6653H129.599V35.8053H128.583Z" fill="#58585A"/>
<path d="M139.572 31.8956C139.572 32.0888 139.56 32.2817 139.533 32.473C139.306 34.2154 138.057 35.5857 136.484 35.7992H133.269V29.6632H134.286V34.6688H136.429C137.47 34.5 138.303 33.6136 138.517 32.473C138.552 32.2826 138.57 32.0893 138.57 31.8956C138.57 31.7102 138.554 31.5251 138.521 31.3426C138.409 30.6908 138.076 30.0976 137.577 29.6632C137.187 29.3247 136.695 29.1258 136.179 29.098H133.269V27.9636H136.099C137.854 27.9859 139.297 29.4457 139.537 31.3406C139.56 31.5247 139.572 31.7101 139.572 31.8956Z" fill="#58585A"/>
<path d="M140.58 35.7992V34.6688H142.028V35.7992H140.58Z" fill="#58585A"/>
<path d="M40.7092 29.7446V29.7466L29.033 21.8439L23.0821 17.8163L10.2469 9.12873L17.1087 5.37152L27.0507 15.6408L31.6618 20.4024L40.7092 29.7446Z" fill="#39B54A"/>
<path d="M40.7092 29.7446L32.7983 19.7823L28.7646 14.7015L20.071 3.74908L26.9145 0L32.7251 12.5322L35.4211 18.3449L40.7092 29.7446Z" fill="#00AEEF"/>
<path d="M21.0042 18.9528V26.2395L40.7092 37.0334V29.7467L21.0042 18.9528Z" fill="#58585A"/>
<path d="M0.959625 29.9215V37.2082L20.6626 48V40.7133L0.959625 29.9215Z" fill="#58585A"/>
<path opacity="0.8" d="M40.7092 29.7466L20.6626 40.7255V48L40.7092 37.0334V29.7466Z" fill="#00AEEF"/>
<path d="M6.65238 11.0927L0 14.7361L11.9141 21.2624L21.0042 18.9528L6.65238 11.0927Z" fill="#00AEEF"/>
<path d="M21.0042 18.9528L3.73485 28.4129L10.3872 32.0563L21.0042 26.2395V18.9528Z" fill="#00AEEF"/>
</g>
<defs>
<clipPath id="clip0_2_58">
<rect width="154.599" height="48" fill="white"/>
</clipPath>
</defs>
</svg>
